<mxfile host="" modified="2020-06-01T06:32:29.238Z" agent="5.0 (Macintosh; Intel Mac OS X 10_15_3) AppleWebKit/537.36 (KHTML, like Gecko) Code/1.45.1 Chrome/78.0.3904.130 Electron/7.2.4 Safari/537.36" etag="XBDx84luZNYT7Y8FvbS2" version="13.1.3">
    <diagram id="6hGFLwfOUW9BJ-s0fimq" name="ER図">
        <mxGraphModel dx="898" dy="440" grid="1" gridSize="10" guides="1" tooltips="1" connect="1" arrows="1" fold="1" page="1" pageScale="1" pageWidth="827" pageHeight="1169" math="0" shadow="0">
            <root>
                <mxCell id="0"/>
                <mxCell id="1" parent="0"/>
                <mxCell id="7" value="ユーザ" style="swimlane;shadow=1;" parent="1" vertex="1">
                    <mxGeometry x="40" y="40" width="160" height="230" as="geometry">
                        <mxRectangle x="40" y="40" width="70" height="23" as="alternateBounds"/>
                    </mxGeometry>
                </mxCell>
                <mxCell id="22" value="ユーザID (PK)" style="text;html=1;strokeColor=none;fillColor=none;align=center;verticalAlign=middle;whiteSpace=wrap;rounded=0;shadow=1;" parent="7" vertex="1">
                    <mxGeometry x="10" y="27" width="80" height="20" as="geometry"/>
                </mxCell>
                <mxCell id="31" value="メールアドレス&lt;br&gt;パスワード&lt;br&gt;ユーザネーム&lt;br&gt;自己紹介&lt;br&gt;個人携帯電話番号&lt;br&gt;勤務先電話番号&lt;br&gt;作成日時&lt;br&gt;作成者ユーザID&lt;br&gt;更新日時&lt;br&gt;更新者ユーザID&lt;br&gt;論理削除フラグ" style="text;html=1;strokeColor=none;fillColor=none;align=left;verticalAlign=middle;whiteSpace=wrap;rounded=0;" parent="7" vertex="1">
                    <mxGeometry x="10" y="70" width="140" height="150" as="geometry"/>
                </mxCell>
                <mxCell id="19" value="" style="line;strokeWidth=2;html=1;shadow=1;" parent="1" vertex="1">
                    <mxGeometry x="40" y="90" width="160" height="10" as="geometry"/>
                </mxCell>
                <mxCell id="36" value="チャットルーム" style="swimlane;shadow=1;" parent="1" vertex="1">
                    <mxGeometry x="560" y="70" width="160" height="210" as="geometry">
                        <mxRectangle x="40" y="40" width="70" height="23" as="alternateBounds"/>
                    </mxGeometry>
                </mxCell>
                <mxCell id="37" value="チャットルームID (PK)" style="text;html=1;strokeColor=none;fillColor=none;align=center;verticalAlign=middle;whiteSpace=wrap;rounded=0;shadow=1;" parent="36" vertex="1">
                    <mxGeometry y="27" width="150" height="20" as="geometry"/>
                </mxCell>
                <mxCell id="38" value="チャットルーム名&lt;br&gt;チャットルーム概要&lt;br&gt;ファイル送信許可フラグ&lt;br&gt;ダイレクトチャットフラグ&lt;br&gt;作成日時&lt;br&gt;作成者ユーザID&lt;br&gt;更新日時&lt;br&gt;更新者ユーザID&lt;br&gt;論理削除フラグ" style="text;html=1;strokeColor=none;fillColor=none;align=left;verticalAlign=middle;whiteSpace=wrap;rounded=0;" parent="36" vertex="1">
                    <mxGeometry x="8" y="56" width="160" height="150" as="geometry"/>
                </mxCell>
                <mxCell id="39" value="" style="line;strokeWidth=2;html=1;shadow=1;" parent="1" vertex="1">
                    <mxGeometry x="560" y="120" width="160" height="10" as="geometry"/>
                </mxCell>
                <mxCell id="40" value="チャットメンバー" style="swimlane;shadow=1;" parent="1" vertex="1">
                    <mxGeometry x="319" y="40" width="160" height="90" as="geometry">
                        <mxRectangle x="40" y="40" width="70" height="23" as="alternateBounds"/>
                    </mxGeometry>
                </mxCell>
                <mxCell id="48" value="ユーザID(FK)&lt;br&gt;&lt;br&gt;チャットルームID(FK)" style="text;html=1;strokeColor=none;fillColor=none;align=left;verticalAlign=middle;whiteSpace=wrap;rounded=0;" parent="40" vertex="1">
                    <mxGeometry x="10" y="29" width="150" height="50" as="geometry"/>
                </mxCell>
                <mxCell id="76" value="" style="endArrow=none;html=1;" edge="1" parent="1" source="77">
                    <mxGeometry width="50" height="50" relative="1" as="geometry">
                        <mxPoint x="319" y="70" as="sourcePoint"/>
                        <mxPoint x="319" y="90" as="targetPoint"/>
                        <Array as="points">
                            <mxPoint x="299" y="80"/>
                        </Array>
                    </mxGeometry>
                </mxCell>
                <mxCell id="77" value="" style="ellipse;whiteSpace=wrap;html=1;aspect=fixed;fillColor=#FFFFFF;" vertex="1" parent="1">
                    <mxGeometry x="298" y="75" width="10" height="10" as="geometry"/>
                </mxCell>
                <mxCell id="78" value="" style="endArrow=none;html=1;" edge="1" parent="1">
                    <mxGeometry width="50" height="50" relative="1" as="geometry">
                        <mxPoint x="319" y="68" as="sourcePoint"/>
                        <mxPoint x="299.23999152002534" y="80.3500052999841" as="targetPoint"/>
                        <Array as="points"/>
                    </mxGeometry>
                </mxCell>
                <mxCell id="82" value="" style="endArrow=none;html=1;" edge="1" parent="1">
                    <mxGeometry width="50" height="50" relative="1" as="geometry">
                        <mxPoint x="200" y="80" as="sourcePoint"/>
                        <mxPoint x="319" y="80" as="targetPoint"/>
                    </mxGeometry>
                </mxCell>
                <mxCell id="83" value="" style="endArrow=none;html=1;" edge="1" parent="1" source="86">
                    <mxGeometry width="50" height="50" relative="1" as="geometry">
                        <mxPoint x="480" y="100" as="sourcePoint"/>
                        <mxPoint x="560" y="100" as="targetPoint"/>
                    </mxGeometry>
                </mxCell>
                <mxCell id="88" value="投稿内容" style="swimlane;shadow=1;" vertex="1" parent="1">
                    <mxGeometry x="322" y="320" width="160" height="210" as="geometry">
                        <mxRectangle x="40" y="40" width="70" height="23" as="alternateBounds"/>
                    </mxGeometry>
                </mxCell>
                <mxCell id="89" value="投稿ID (PK)" style="text;html=1;strokeColor=none;fillColor=none;align=center;verticalAlign=middle;whiteSpace=wrap;rounded=0;shadow=1;" vertex="1" parent="88">
                    <mxGeometry y="27" width="150" height="20" as="geometry"/>
                </mxCell>
                <mxCell id="90" value="チャットルームID(FK)&lt;br&gt;&lt;br&gt;投稿内容&lt;br&gt;ファイル名&lt;br&gt;作成日時&lt;br&gt;作成者ユーザID&lt;br&gt;更新日時&lt;br&gt;更新者ユーザID&lt;br&gt;論理削除" style="text;html=1;strokeColor=none;fillColor=none;align=left;verticalAlign=middle;whiteSpace=wrap;rounded=0;" vertex="1" parent="88">
                    <mxGeometry x="8" y="61" width="160" height="150" as="geometry"/>
                </mxCell>
                <mxCell id="91" value="" style="line;strokeWidth=2;html=1;shadow=1;" vertex="1" parent="1">
                    <mxGeometry x="322" y="370" width="160" height="10" as="geometry"/>
                </mxCell>
                <mxCell id="92" value="タスク" style="swimlane;shadow=1;" vertex="1" parent="1">
                    <mxGeometry x="560" y="320" width="160" height="210" as="geometry">
                        <mxRectangle x="40" y="40" width="70" height="23" as="alternateBounds"/>
                    </mxGeometry>
                </mxCell>
                <mxCell id="93" value="タスクID (PK)" style="text;html=1;strokeColor=none;fillColor=none;align=center;verticalAlign=middle;whiteSpace=wrap;rounded=0;shadow=1;" vertex="1" parent="92">
                    <mxGeometry y="27" width="150" height="20" as="geometry"/>
                </mxCell>
                <mxCell id="94" value="チャットルームID(FK)&lt;br&gt;&lt;br&gt;タスク詳細&lt;br&gt;タスク担当者&lt;br&gt;期限日時&lt;br&gt;作成日時&lt;br&gt;作成者ユーザID&lt;br&gt;更新日時&lt;br&gt;更新者ユーザID&lt;br&gt;論理削除" style="text;html=1;strokeColor=none;fillColor=none;align=left;verticalAlign=middle;whiteSpace=wrap;rounded=0;" vertex="1" parent="92">
                    <mxGeometry x="8" y="57" width="160" height="150" as="geometry"/>
                </mxCell>
                <mxCell id="95" value="" style="line;strokeWidth=2;html=1;shadow=1;" vertex="1" parent="1">
                    <mxGeometry x="560" y="370" width="160" height="10" as="geometry"/>
                </mxCell>
                <mxCell id="100" value="" style="endArrow=none;html=1;" edge="1" parent="1">
                    <mxGeometry width="50" height="50" relative="1" as="geometry">
                        <mxPoint x="220" y="93" as="sourcePoint"/>
                        <mxPoint x="220" y="68" as="targetPoint"/>
                        <Array as="points">
                            <mxPoint x="220" y="73"/>
                        </Array>
                    </mxGeometry>
                </mxCell>
                <mxCell id="105" value="" style="endArrow=none;html=1;" edge="1" parent="1">
                    <mxGeometry width="50" height="50" relative="1" as="geometry">
                        <mxPoint x="321" y="400" as="sourcePoint"/>
                        <mxPoint x="561" y="116" as="targetPoint"/>
                        <Array as="points">
                            <mxPoint x="251" y="400"/>
                            <mxPoint x="251" y="266"/>
                        </Array>
                    </mxGeometry>
                </mxCell>
                <mxCell id="86" value="" style="ellipse;whiteSpace=wrap;html=1;aspect=fixed;fillColor=#FFFFFF;" vertex="1" parent="1">
                    <mxGeometry x="490" y="95" width="10" height="10" as="geometry"/>
                </mxCell>
                <mxCell id="114" value="" style="endArrow=none;html=1;" edge="1" parent="1" target="86">
                    <mxGeometry width="50" height="50" relative="1" as="geometry">
                        <mxPoint x="480" y="100" as="sourcePoint"/>
                        <mxPoint x="560" y="100" as="targetPoint"/>
                    </mxGeometry>
                </mxCell>
                <mxCell id="115" value="" style="endArrow=none;html=1;" edge="1" parent="1" source="116">
                    <mxGeometry width="50" height="50" relative="1" as="geometry">
                        <mxPoint x="322" y="390" as="sourcePoint"/>
                        <mxPoint x="322" y="410" as="targetPoint"/>
                        <Array as="points">
                            <mxPoint x="302" y="400"/>
                        </Array>
                    </mxGeometry>
                </mxCell>
                <mxCell id="116" value="" style="ellipse;whiteSpace=wrap;html=1;aspect=fixed;fillColor=#FFFFFF;" vertex="1" parent="1">
                    <mxGeometry x="301" y="395" width="10" height="10" as="geometry"/>
                </mxCell>
                <mxCell id="119" value="" style="endArrow=none;html=1;" edge="1" parent="1" target="116">
                    <mxGeometry width="50" height="50" relative="1" as="geometry">
                        <mxPoint x="322" y="390" as="sourcePoint"/>
                        <mxPoint x="322" y="410" as="targetPoint"/>
                        <Array as="points"/>
                    </mxGeometry>
                </mxCell>
                <mxCell id="120" value="" style="endArrow=none;html=1;" edge="1" parent="1">
                    <mxGeometry width="50" height="50" relative="1" as="geometry">
                        <mxPoint x="550" y="110" as="sourcePoint"/>
                        <mxPoint x="550" y="90" as="targetPoint"/>
                    </mxGeometry>
                </mxCell>
                <mxCell id="121" value="" style="endArrow=none;html=1;" edge="1" parent="1">
                    <mxGeometry width="50" height="50" relative="1" as="geometry">
                        <mxPoint x="479" y="90" as="sourcePoint"/>
                        <mxPoint x="479" y="110" as="targetPoint"/>
                        <Array as="points">
                            <mxPoint x="499" y="100"/>
                        </Array>
                    </mxGeometry>
                </mxCell>
                <mxCell id="123" value="" style="endArrow=none;html=1;" edge="1" parent="1">
                    <mxGeometry width="50" height="50" relative="1" as="geometry">
                        <mxPoint x="550" y="135" as="sourcePoint"/>
                        <mxPoint x="542" y="115" as="targetPoint"/>
                    </mxGeometry>
                </mxCell>
                <mxCell id="124" value="" style="endArrow=none;html=1;" edge="1" parent="1">
                    <mxGeometry width="50" height="50" relative="1" as="geometry">
                        <mxPoint x="720" y="110" as="sourcePoint"/>
                        <mxPoint x="720" y="390" as="targetPoint"/>
                        <Array as="points">
                            <mxPoint x="780" y="110"/>
                            <mxPoint x="780" y="390"/>
                        </Array>
                    </mxGeometry>
                </mxCell>
                <mxCell id="125" value="" style="endArrow=none;html=1;" edge="1" parent="1" source="126">
                    <mxGeometry width="50" height="50" relative="1" as="geometry">
                        <mxPoint x="720" y="400" as="sourcePoint"/>
                        <mxPoint x="720" y="380" as="targetPoint"/>
                        <Array as="points"/>
                    </mxGeometry>
                </mxCell>
                <mxCell id="126" value="" style="ellipse;whiteSpace=wrap;html=1;aspect=fixed;fillColor=#FFFFFF;" vertex="1" parent="1">
                    <mxGeometry x="731" y="385" width="10" height="10" as="geometry"/>
                </mxCell>
                <mxCell id="127" value="" style="endArrow=none;html=1;" edge="1" parent="1" target="126">
                    <mxGeometry width="50" height="50" relative="1" as="geometry">
                        <mxPoint x="720" y="400" as="sourcePoint"/>
                        <mxPoint x="720" y="380" as="targetPoint"/>
                        <Array as="points">
                            <mxPoint x="740" y="390"/>
                        </Array>
                    </mxGeometry>
                </mxCell>
                <mxCell id="129" value="" style="endArrow=none;html=1;" edge="1" parent="1">
                    <mxGeometry width="50" height="50" relative="1" as="geometry">
                        <mxPoint x="735.5" y="120" as="sourcePoint"/>
                        <mxPoint x="735.5" y="100" as="targetPoint"/>
                    </mxGeometry>
                </mxCell>
            </root>
        </mxGraphModel>
    </diagram>
</mxfile>